<svg width="105" height="50" viewBox="0 0 105 50" fill="none" xmlns="http://www.w3.org/2000/svg%22%3E
<rect width="105" height="50" rx="25" fill="url(#paint0_linear_59_4344)"/>
<path d="M66.2992 12C64.4668 12 63.5344 14.2022 64.8097 15.518V15.518C65.5895 16.3225 65.5895 17.6008 64.8097 18.4053L58.1152 25.3124C56.9365 26.5285 54.9855 26.5285 53.8068 25.3124L49.7167 21.0924C48.5374 19.8757 46.5853 19.8764 45.4068 21.0939L33.4327 33.4648C32.6342 34.2898 32.6346 35.5998 33.4337 36.4243V36.4243C34.2694 37.2864 35.6526 37.2864 36.4883 36.4243L45.4068 27.2226C46.5855 26.0065 48.5365 26.0065 49.7152 27.2226L53.8085 31.4458C54.9865 32.6613 56.9363 32.6621 58.1153 31.4476L67.7731 21.4989C68.5491 20.6995 69.8323 20.7 70.6077 21.5V21.5C71.8423 22.7738 74 21.8998 74 20.1258V15C74 13.3431 72.6569 12 71 12H66.2992Z" fill="#E7E7E7"/>
<defs>
<linearGradient id="paint0_linear_59_4344" x1="1.46284e-07" y1="15.678" x2="107.078" y2="16.8663" gradientUnits="userSpaceOnUse">
<stop stop-color="#FF9900"/>
<stop offset="1" stop-color="#FF6B00"/>
</linearGradient>
</defs>
</svg>